<svg xmlns="http://www.w3.org/2000/svg" width="800" height="776.08" viewBox="0 0 800 776.08"><defs><style>.a{fill:#999;}.b{fill:#ccc;}.c{fill:none;stroke:#fff;stroke-miterlimit:10;stroke-width:6px;}.d{opacity:0.15;}.e{fill:#ed2224;}</style></defs><title>editorial-layout-diagrams</title><rect class="a" y="104.35" width="278.26" height="278.26"/><rect class="b" x="347.83" y="104.35" width="422.17" height="37.5"/><rect class="b" x="347.83" y="163.22" width="392.17" height="37.5"/><rect class="b" x="347.83" y="222.1" width="432.17" height="37.5"/><rect class="b" x="347.83" y="280.98" width="452.17" height="37.5"/><rect class="b" x="347.83" y="339.85" width="412.17" height="37.5"/><rect class="b" x="347.83" y="398.73" width="362.17" height="37.5"/><rect class="b" y="457.6" width="780" height="37.5"/><rect class="b" y="516.48" width="800" height="37.5"/><rect class="b" y="575.36" width="750" height="37.5"/><rect class="b" y="634.23" width="770" height="37.5"/><line class="c" y1="104.35" x2="278.26" y2="382.61"/><line class="c" y1="382.61" x2="278.26" y2="104.35"/><g class="d"><rect class="e" width="104.35" height="776.08"/></g><g class="d"><rect class="e" x="173.91" width="104.35" height="776.08"/></g><g class="d"><rect class="e" x="347.83" width="104.35" height="776.08"/></g><g class="d"><rect class="e" x="521.74" width="104.35" height="776.08"/></g><g class="d"><rect class="e" x="695.65" width="104.35" height="776.08"/></g></svg>